<?xml version="1.0" ?><!DOCTYPE svg  PUBLIC '-//W3C//DTD SVG 1.1//EN'  'http://www.w3.org/Graphics/SVG/1.1/DTD/svg11.dtd'><svg height="100%" style="fill-rule:evenodd;clip-rule:evenodd;stroke-linejoin:round;stroke-miterlimit:2;" version="1.1" viewBox="0 0 512 512" width="100%" xml:space="preserve" xmlns="http://www.w3.org/2000/svg" xmlns:serif="http://www.serif.com/" xmlns:xlink="http://www.w3.org/1999/xlink"><path d="M256,0c141.29,0 256,114.71 256,256c0,141.29 -114.71,256 -256,256c-141.29,0 -256,-114.71 -256,-256c0,-141.29 114.71,-256 256,-256Zm121.527,134.844c-30.646,-30.672 -71.401,-47.571 -114.822,-47.588c-89.468,0 -162.284,72.788 -162.319,162.256c-0.012,28.599 7.462,56.516 21.666,81.122l-23.028,84.086l86.048,-22.564c23.708,12.927 50.401,19.739 77.568,19.751l0.067,0c89.459,0 162.281,-72.797 162.317,-162.266c0.017,-43.358 -16.851,-84.127 -47.497,-114.797Zm-114.821,249.657l-0.054,0c-24.209,-0.01 -47.953,-6.511 -68.667,-18.799l-4.927,-2.924l-51.061,13.391l13.629,-49.769l-3.208,-5.102c-13.505,-21.473 -20.637,-46.293 -20.627,-71.776c0.03,-74.362 60.552,-134.861 134.969,-134.861c36.035,0.014 69.908,14.062 95.38,39.554c25.472,25.493 39.492,59.379 39.478,95.416c-0.03,74.367 -60.551,134.869 -134.912,134.87Zm74.003,-101.01c-4.056,-2.029 -23.996,-11.838 -27.715,-13.191c-3.717,-1.353 -6.42,-2.03 -9.124,2.029c-2.704,4.059 -10.477,13.192 -12.843,15.898c-2.365,2.705 -4.731,3.045 -8.787,1.014c-4.056,-2.028 -17.124,-6.31 -32.615,-20.124c-12.057,-10.75 -20.197,-24.029 -22.563,-28.087c-2.365,-4.059 -0.252,-6.253 1.779,-8.275c1.824,-1.816 4.055,-4.735 6.083,-7.103c2.028,-2.368 2.704,-4.059 4.056,-6.764c1.352,-2.707 0.676,-5.074 -0.338,-7.104c-1.014,-2.029 -9.125,-21.986 -12.505,-30.104c-3.291,-7.906 -6.635,-6.836 -9.125,-6.96c-2.363,-0.118 -5.069,-0.143 -7.773,-0.143c-2.704,0 -7.097,1.015 -10.816,5.074c-3.717,4.059 -14.194,13.868 -14.194,33.824c0,19.957 14.533,39.236 16.561,41.943c2.028,2.706 28.599,43.659 69.284,61.221c9.676,4.177 17.231,6.672 23.121,8.541c9.716,3.085 18.557,2.65 25.546,1.606c7.792,-1.164 23.996,-9.809 27.375,-19.279c3.379,-9.471 3.379,-17.589 2.366,-19.28c-1.014,-1.691 -3.718,-2.706 -7.773,-4.736Z"/></svg>