<svg xmlns="http://www.w3.org/2000/svg" xmlns:xlink="http://www.w3.org/1999/xlink" viewBox="0 0 500 500"><defs><clipPath id="freepik--clip-path--inject-8"><path d="M438.37,324.17c-.53-2.12-10.86-7.68-10.86-7.68s-9.54-14-14.83-19.07a78,78,0,0,0-9.27-7.68s11.39-1.06,11.39-2.91-2.65-2.12-4.51-2.65-15.36-.26-15.36-.26H318.39l-75.48,4.23-23.3,1.59s-1.06-2.91-3.18-2.91a40.92,40.92,0,0,1-5.3-.53s-1.06-2.38,2.65-5.83,22.78-15.09,22.78-15.09a7.84,7.84,0,0,0-2.12-4.77,11.61,11.61,0,0,0-4.77-3.18l-8.47-1.32c-1.33,0-22,11.12-51.38,33.9,0,0-39.73,3.18-59.33,9.8s-28.34,13.77-32.31,23.83c0,0,.53,3.45-.53,4.51s-8.21,3.44-9.8,6.09,1.33,22.51,1.33,22.51S66,358.87,67.32,361s10.33,6.09,17.75,7.41a89.24,89.24,0,0,0,14,1.33h.36a57,57,0,0,1-1.15-11.91,36.82,36.82,0,1,1,73.63,0c0,4.15-.13,7.84-.37,11.15l3,0,12.45-.79,149.51-1.58c-.26-2.67-.4-5.58-.4-8.75a38.14,38.14,0,1,1,76.27,0,38.53,38.53,0,0,1-.4,5.51l13.64-2.86,11.13-11.92a17.25,17.25,0,0,0,1.32-6.36C438.1,338.74,438.9,326.29,438.37,324.17Z" style="fill:#fff;stroke:#263238;stroke-linecap:round;stroke-linejoin:round"></path></clipPath></defs><g id="freepik--background-simple--inject-8"><path d="M377.08,182.79a93.07,93.07,0,0,0-52.17-9.12c-23,2.52-41.11,5.48-63.14-2.12-18.49-6.38-35.37-15.86-53-23.8-36.08-16.23-71.89-21.25-98.94,10.76A189.54,189.54,0,0,0,77,215.76c-12.2,33.29-22.22,70.16-16.73,104.94,7,44.08,49.59,64.78,100.58,48.81,20.62-6.46,40.53-15.9,62.53-18.61,46-5.67,84,31.79,139.14,22.7C457.62,357.92,450.59,218.49,377.08,182.79Z" style="fill:#92E3A9"></path><path d="M377.08,182.79a93.07,93.07,0,0,0-52.17-9.12c-23,2.52-41.11,5.48-63.14-2.12-18.49-6.38-35.37-15.86-53-23.8-36.08-16.23-71.89-21.25-98.94,10.76A189.54,189.54,0,0,0,77,215.76c-12.2,33.29-22.22,70.16-16.73,104.94,7,44.08,49.59,64.78,100.58,48.81,20.62-6.46,40.53-15.9,62.53-18.61,46-5.67,84,31.79,139.14,22.7C457.62,357.92,450.59,218.49,377.08,182.79Z" style="fill:#fff;opacity:0.7000000000000001"></path></g><g id="freepik--Trees--inject-8"><path d="M354.87,361.66h63.2c-1.21-7.73-6.18-6.37-6.84-18.35-.33-6,5.26-13.49,4.77-21.42-.4-6.53-6.83-13.22-7.33-20.69-.45-6.74,5-14.21,4.51-21.48-.51-6.86-7-13.45-7.61-20.59-.56-7,4.82-14.51,4.18-21.55s-7.27-13.51-8-20.44c-.73-7.14,4.48-14.82,3.68-21.64-.84-7.25-7.68-13.51-8.61-20.18-1-7.44,3.81-15.38,2.68-21.8-1.39-7.86-8.71-13.55-10.25-19.35-2.87-10.8-2.51-21.22-5.9-21.9-3.61-.72-4.44,9.49-7.18,20.9-1.38,5.74-8.53,11.55-9.71,19.41-.95,6.37,4.11,14.12,3.28,21.52-.74,6.63-7.41,13-8.06,20.21-.61,6.78,4.8,14.26,4.27,21.34-.52,6.89-7,13.46-7.43,20.46s5.13,14.32,4.75,21.23c-.39,7.08-6.74,13.77-7.07,20.58-.34,7.21,5.35,14.48,5.07,21.16-.31,7.41-6.57,14.2-6.8,20.67-.28,7.86,5.49,15.12,5.31,21.1-.38,13-6.33,10.3-6.54,20.75Z" style="fill:#92E3A9"></path><line x1="382" y1="133.04" x2="382" y2="358.74" style="fill:none;stroke:#000;stroke-miterlimit:10"></line><polyline points="391.87 156.7 381.58 165.59 373.16 154.36" style="fill:none;stroke:#000;stroke-miterlimit:10"></polyline><polyline points="391.87 195.99 381.58 204.87 373.16 193.65" style="fill:none;stroke:#000;stroke-miterlimit:10"></polyline><polyline points="391.87 232.94 381.58 241.82 373.16 230.6" style="fill:none;stroke:#000;stroke-miterlimit:10"></polyline><polyline points="391.87 276.9 381.58 285.78 373.16 274.56" style="fill:none;stroke:#000;stroke-miterlimit:10"></polyline><polyline points="391.87 321.33 381.58 330.21 373.16 318.99" style="fill:none;stroke:#000;stroke-miterlimit:10"></polyline><path d="M311.82,361.66h48.79c-.94-6-4.77-4.92-5.28-14.16-.26-4.66,4.05-10.42,3.68-16.54-.31-5-5.27-10.2-5.66-16-.35-5.2,3.89-11,3.48-16.58-.39-5.3-5.42-10.38-5.87-15.89s3.72-11.21,3.23-16.64-5.62-10.42-6.16-15.78,3.46-11.43,2.84-16.7c-.65-5.6-5.93-10.43-6.64-15.58-.8-5.74,2.94-11.87,2.06-16.82-1.07-6.07-6.72-10.46-7.9-14.94-2.22-8.34-1.94-16.38-4.56-16.91-2.79-.56-3.43,7.33-5.54,16.14-1.06,4.42-6.59,8.91-7.5,15-.73,4.92,3.17,10.9,2.53,16.61-.57,5.12-5.71,10-6.22,15.6-.47,5.23,3.71,11,3.3,16.48-.4,5.31-5.39,10.38-5.74,15.78s4,11.06,3.67,16.4-5.2,10.62-5.45,15.88c-.27,5.56,4.12,11.18,3.91,16.34-.24,5.71-5.07,10.95-5.25,15.95-.22,6.07,4.24,11.67,4.1,16.29-.3,10-4.89,7.95-5.05,16Z" style="fill:#92E3A9"></path><line x1="332.77" y1="185.19" x2="332.77" y2="359.41" style="fill:none;stroke:#000;stroke-miterlimit:10"></line><polyline points="340.38 203.45 332.44 210.31 325.94 201.65" style="fill:none;stroke:#000;stroke-miterlimit:10"></polyline><polyline points="340.38 233.78 332.44 240.63 325.94 231.97" style="fill:none;stroke:#000;stroke-miterlimit:10"></polyline><polyline points="340.38 262.3 332.44 269.15 325.94 260.49" style="fill:none;stroke:#000;stroke-miterlimit:10"></polyline><polyline points="340.38 296.23 332.44 303.09 325.94 294.43" style="fill:none;stroke:#000;stroke-miterlimit:10"></polyline><polyline points="340.38 330.53 332.44 337.39 325.94 328.72" style="fill:none;stroke:#000;stroke-miterlimit:10"></polyline><path d="M76.72,361.66h39.73c-.77-4.86-3.89-4-4.3-11.53-.21-3.79,3.3-8.48,3-13.47-.25-4.1-4.3-8.31-4.61-13-.29-4.23,3.17-8.93,2.83-13.5-.32-4.31-4.42-8.46-4.78-12.94s3-9.12,2.63-13.55-4.57-8.49-5-12.85,2.82-9.31,2.32-13.6c-.53-4.55-4.83-8.49-5.41-12.68-.65-4.67,2.39-9.67,1.68-13.7-.87-4.94-5.47-8.52-6.44-12.16-1.8-6.8-1.58-13.34-3.71-13.77s-2.79,6-4.51,13.14c-.87,3.6-5.36,7.25-6.1,12.2-.6,4,2.58,8.87,2.06,13.52-.47,4.17-4.66,8.18-5.07,12.71-.38,4.26,3,9,2.69,13.41s-4.39,8.46-4.67,12.86,3.22,9,3,13.34-4.24,8.66-4.44,12.94c-.22,4.53,3.36,9.1,3.18,13.3-.19,4.65-4.12,8.92-4.27,13-.17,4.94,3.45,9.5,3.34,13.26-.24,8.16-4,6.47-4.11,13Z" style="fill:#92E3A9"></path><line x1="93.78" y1="217.97" x2="93.78" y2="359.83" style="fill:none;stroke:#000;stroke-miterlimit:10"></line><polyline points="99.98 232.84 93.51 238.42 88.22 231.37" style="fill:none;stroke:#000;stroke-miterlimit:10"></polyline><polyline points="99.98 257.53 93.51 263.12 88.22 256.06" style="fill:none;stroke:#000;stroke-miterlimit:10"></polyline><polyline points="99.98 280.75 93.51 286.34 88.22 279.28" style="fill:none;stroke:#000;stroke-miterlimit:10"></polyline><polyline points="99.98 308.38 93.51 313.97 88.22 306.91" style="fill:none;stroke:#000;stroke-miterlimit:10"></polyline><polyline points="99.98 336.31 93.51 341.89 88.22 334.84" style="fill:none;stroke:#000;stroke-miterlimit:10"></polyline></g><g id="freepik--Car--inject-8"><path d="M435,385.1c0,3.93-82.59,7.11-184.48,7.11S66,389,66,385.1s82.6-7.1,184.48-7.1S435,381.18,435,385.1Z" style="fill:#92E3A9"></path><path d="M435,385.1c0,3.93-82.59,7.11-184.48,7.11S66,389,66,385.1s82.6-7.1,184.48-7.1S435,381.18,435,385.1Z" style="fill:#fff;opacity:0.5"></path><path d="M99.46,369.72l72.11-.76,165-2.4,64.18-5.46L412,363.32s6.19-5.06,5.71-17.81-10.39-34-40.61-35.89-47.23,17.94-54.31,27.86-144.52,12.75-144.52,12.75-2.83-27.86-27.86-34.47S109.33,317.65,99.89,328s-6.61,37.31-6.61,37.31Z" style="fill:#263238;stroke:#263238;stroke-linecap:round;stroke-linejoin:round"></path><path d="M214.57,279.94s6.36-1.32,6.89,1.86.27,4.77-1.32,5.56a12,12,0,0,1-7.68.53,3.59,3.59,0,0,1-1.86-5.83A9.16,9.16,0,0,1,214.57,279.94Z" style="fill:#fff;stroke:#263238;stroke-linecap:round;stroke-linejoin:round"></path><path d="M438.37,324.17c-.53-2.12-10.86-7.68-10.86-7.68s-9.54-14-14.83-19.07a78,78,0,0,0-9.27-7.68s11.39-1.06,11.39-2.91-2.65-2.12-4.51-2.65-15.36-.26-15.36-.26H318.39l-75.48,4.23-23.3,1.59s-1.06-2.91-3.18-2.91a40.92,40.92,0,0,1-5.3-.53s-1.06-2.38,2.65-5.83,22.78-15.09,22.78-15.09a7.84,7.84,0,0,0-2.12-4.77,11.61,11.61,0,0,0-4.77-3.18l-8.47-1.32c-1.33,0-22,11.12-51.38,33.9,0,0-39.73,3.18-59.33,9.8s-28.34,13.77-32.31,23.83c0,0,.53,3.45-.53,4.51s-8.21,3.44-9.8,6.09,1.33,22.51,1.33,22.51S66,358.87,67.32,361s10.33,6.09,17.75,7.41a89.24,89.24,0,0,0,14,1.33h.36a57,57,0,0,1-1.15-11.91,36.82,36.82,0,1,1,73.63,0c0,4.15-.13,7.84-.37,11.15l3,0,12.45-.79,149.51-1.58c-.26-2.67-.4-5.58-.4-8.75a38.14,38.14,0,1,1,76.27,0,38.53,38.53,0,0,1-.4,5.51l13.64-2.86,11.13-11.92a17.25,17.25,0,0,0,1.32-6.36C438.1,338.74,438.9,326.29,438.37,324.17Z" style="fill:#fff"></path><g style="clip-path:url(#freepik--clip-path--inject-8)"><path d="M438.1,342.18c0-1.7.19-5.58.33-9.34C382.57,297.21,349.84,316,308,328c-45.35,13-101-9-152-14-28.6-2.8-58.14,6-78.57,14.33-1.59,1.13-8.07,3.4-9.58,5.91s1.33,22.51,1.33,22.51S66,358.87,67.32,361s10.33,6.09,17.75,7.41a89.24,89.24,0,0,0,14,1.33h.36a57,57,0,0,1-1.15-11.91,36.82,36.82,0,1,1,73.63,0c0,4.15-.13,7.84-.37,11.15l3,0,12.45-.79,149.51-1.58c-.26-2.67-.4-5.58-.4-8.75a38.14,38.14,0,1,1,76.27,0,38.53,38.53,0,0,1-.4,5.51l13.64-2.86,11.13-11.92A17.25,17.25,0,0,0,438.1,342.18Z" style="fill:#92E3A9"></path><path d="M438.1,342.18c0-1.7.19-5.58.33-9.34C382.57,297.21,349.84,316,308,328c-45.35,13-101-9-152-14-28.6-2.8-58.14,6-78.57,14.33-1.59,1.13-8.07,3.4-9.58,5.91s1.33,22.51,1.33,22.51S66,358.87,67.32,361s10.33,6.09,17.75,7.41a89.24,89.24,0,0,0,14,1.33h.36a57,57,0,0,1-1.15-11.91,36.82,36.82,0,1,1,73.63,0c0,4.15-.13,7.84-.37,11.15l3,0,12.45-.79,149.51-1.58c-.26-2.67-.4-5.58-.4-8.75a38.14,38.14,0,1,1,76.27,0,38.53,38.53,0,0,1-.4,5.51l13.64-2.86,11.13-11.92A17.25,17.25,0,0,0,438.1,342.18Z" style="fill:#fff;opacity:0.5"></path><ellipse cx="262.68" cy="335.83" rx="19.82" ry="43.31" style="opacity:0.2"></ellipse></g><path d="M438.37,324.17c-.53-2.12-10.86-7.68-10.86-7.68s-9.54-14-14.83-19.07a78,78,0,0,0-9.27-7.68s11.39-1.06,11.39-2.91-2.65-2.12-4.51-2.65-15.36-.26-15.36-.26H318.39l-75.48,4.23-23.3,1.59s-1.06-2.91-3.18-2.91a40.92,40.92,0,0,1-5.3-.53s-1.06-2.38,2.65-5.83,22.78-15.09,22.78-15.09a7.84,7.84,0,0,0-2.12-4.77,11.61,11.61,0,0,0-4.77-3.18l-8.47-1.32c-1.33,0-22,11.12-51.38,33.9,0,0-39.73,3.18-59.33,9.8s-28.34,13.77-32.31,23.83c0,0,.53,3.45-.53,4.51s-8.21,3.44-9.8,6.09,1.33,22.51,1.33,22.51S66,358.87,67.32,361s10.33,6.09,17.75,7.41a89.24,89.24,0,0,0,14,1.33h.36a57,57,0,0,1-1.15-11.91,36.82,36.82,0,1,1,73.63,0c0,4.15-.13,7.84-.37,11.15l3,0,12.45-.79,149.51-1.58c-.26-2.67-.4-5.58-.4-8.75a38.14,38.14,0,1,1,76.27,0,38.53,38.53,0,0,1-.4,5.51l13.64-2.86,11.13-11.92a17.25,17.25,0,0,0,1.32-6.36C438.1,338.74,438.9,326.29,438.37,324.17Z" style="fill:none;stroke:#263238;stroke-linecap:round;stroke-linejoin:round"></path><path d="M226.76,264.32s-25.69,14.83-38.4,32.31l208.43-11.12-13.31-1.59H318.39l-75.48,4.23-23.3,1.59s-1.06-2.91-3.18-2.91a40.92,40.92,0,0,1-5.3-.53s-1.06-2.38,2.65-5.83,22.78-15.09,22.78-15.09a7.84,7.84,0,0,0-2.12-4.77,11.61,11.61,0,0,0-4.77-3.18l-8.47-1.32S226.76,259.55,226.76,264.32Z" style="fill:#fff;stroke:#263238;stroke-linecap:round;stroke-linejoin:round"></path><path d="M277.54,270.67a4.61,4.61,0,0,0-5,3.72,34.31,34.31,0,0,0-.73,6.08c0,4,5.83,6.89,5.83,6.89l-2.92,4.24,12.19-.53a9.33,9.33,0,0,0-.53-3.18l-.53-1.06s1.59-1.85-1.06-7.42-5-8.47-7.15-8.74Z" style="fill:#263238;stroke:#263238;stroke-linecap:round;stroke-linejoin:round"></path><path d="M327.66,284.18l4,4.24,54.3-1.59,7.15-.53s2.91,0,1.85-2.38a4.82,4.82,0,0,0-3.71-2.65s-1.06-3.18-2.38-4.24a5,5,0,0,0-3.18-1.32c-.79,0-2.12-4.24-4-4.24s-7.68,2.12-8.48,2.65-6.09-4.24-9.79-3.45-24.63,9.54-27.28,10.6S327.66,284.18,327.66,284.18Z" style="fill:#263238;stroke:#263238;stroke-linecap:round;stroke-linejoin:round"></path><path d="M352.56,282.33s-.53-12.71-2.12-14-4.5-2.65-5.56-1.85l-1.06.79s-1.33-1.59-3.71-.26-3.44,7.41-3.44,10.06a6,6,0,0,0,1.85,4.24l-4.5,2.65,2.38,3.7Z" style="fill:#263238;stroke:#263238;stroke-linecap:round;stroke-linejoin:round"></path><path d="M219.61,289.74s-1.06-2.91-3.18-2.91a40.92,40.92,0,0,1-5.3-.53s-1.06-2.38,2.65-5.83,22.78-15.09,22.78-15.09a7.84,7.84,0,0,0-2.12-4.77,11.61,11.61,0,0,0-4.77-3.18l-8.47-1.32s5.56,3.44,5.56,8.21c0,0-25.69,14.83-38.4,32.31l34.11-1.82Z" style="fill:#263238;stroke:#263238;stroke-linecap:round;stroke-linejoin:round"></path><path d="M200.54,283.65s4-1.06,6.35,1.06,3.18,7.15,1.86,8-7.15.79-7.15.79l2.91,2.65-6.62.26-.27-2.91s-3.7-2.38-3.17-5.3S200.54,283.65,200.54,283.65Z" style="fill:#fff;stroke:#263238;stroke-linecap:round;stroke-linejoin:round"></path><path d="M418.5,304.57s-14.56-10.85-40.78-7.68-46.88,13-55.35,55.09" style="fill:none;stroke:#263238;stroke-linecap:round;stroke-linejoin:round"></path><path d="M325.28,358.6s2.38-1.59,1.59-3.18a6.93,6.93,0,0,0-6.09-3.7c-3.18,0-135.34,4.5-135.34,4.5l.8,5.82Z" style="fill:none;stroke:#263238;stroke-linecap:round;stroke-linejoin:round"></path><path d="M185.44,356.22s0-15.63-5.29-25.69-13-19.33-31.26-26-50.58,4.24-50.58,4.24A42.45,42.45,0,0,0,79.51,325l-1.06,1.85" style="fill:none;stroke:#263238;stroke-linecap:round;stroke-linejoin:round"></path><path d="M93.2,324.11c-5.42,5-11.26,7.52-13,5.59s1.15-7.57,6.57-12.59,11.25-7.52,13-5.59S98.61,319.09,93.2,324.11Z" style="fill:none;stroke:#263238;stroke-linecap:round;stroke-linejoin:round"></path><path d="M67.84,345.63c.53,5.61,1.34,11.12,1.34,11.12s7.68,2.38,10.33,2.12,3.7-1.06,4.76-5.56-1.32-6.1-1.32-6.1l-15.1-1.59Z" style="fill:#263238;stroke:#263238;stroke-linecap:round;stroke-linejoin:round"></path><path d="M290.45,311.46H287.8a4.11,4.11,0,0,1-4.1-4.1h0a4.11,4.11,0,0,1,4.1-4.11h2.65a4.11,4.11,0,0,1,4.11,4.11h0A4.11,4.11,0,0,1,290.45,311.46Z" style="fill:#fff;stroke:#263238;stroke-linecap:round;stroke-linejoin:round"></path><path d="M283.43,309.11a1.89,1.89,0,0,1,0-3.78l14.3-.26a1.91,1.91,0,0,1,1.92,1.85,1.89,1.89,0,0,1-1.85,1.93l-14.3.26Z" style="fill:#fff;stroke:#263238;stroke-linecap:round;stroke-linejoin:round"></path><circle cx="374.27" cy="357.81" r="30.46" transform="matrix(0.99, -0.16, 0.16, 0.99, -52.94, 65.24)" style="fill:#263238;stroke:#263238;stroke-linecap:round;stroke-linejoin:round"></circle><circle cx="374.27" cy="357.81" r="20.92" transform="translate(-52.79 65.03) rotate(-9.28)" style="fill:#fff;stroke:#263238;stroke-linecap:round;stroke-linejoin:round"></circle><circle cx="374.27" cy="357.81" r="12.45" transform="translate(-143.39 369.45) rotate(-45)" style="fill:none;stroke:#263238;stroke-linecap:round;stroke-linejoin:round"></circle><path d="M379.84,357.81a5.57,5.57,0,1,0-5.57,5.56A5.56,5.56,0,0,0,379.84,357.81Z" style="fill:none;stroke:#263238;stroke-linecap:round;stroke-linejoin:round"></path><circle cx="135.12" cy="357.81" r="30.46" transform="matrix(0.99, -0.16, 0.16, 0.99, -56.08, 26.56)" style="fill:#263238;stroke:#263238;stroke-linecap:round;stroke-linejoin:round"></circle><circle cx="135.12" cy="357.81" r="20.92" transform="translate(-79.27 41.07) rotate(-13.4)" style="fill:#fff;stroke:#263238;stroke-linecap:round;stroke-linejoin:round"></circle><circle cx="135.12" cy="357.81" r="12.45" transform="translate(-78.99 40.89) rotate(-13.36)" style="fill:none;stroke:#263238;stroke-linecap:round;stroke-linejoin:round"></circle><path d="M140.68,357.81a5.56,5.56,0,1,0-5.56,5.56A5.56,5.56,0,0,0,140.68,357.81Z" style="fill:none;stroke:#263238;stroke-linecap:round;stroke-linejoin:round"></path><path d="M300.73,291a51.58,51.58,0,0,1,2.88,22.15c-1,12.92-8.62,39.38-8.62,39.38a5.49,5.49,0,0,1-1.43,7" style="fill:none;stroke:#263238;stroke-linecap:round;stroke-linejoin:round"></path><path d="M188.36,296.63a32.25,32.25,0,0,0-3.82,5.48c-1.29,2.59-1.72,34.14-1.72,34.14" style="fill:none;stroke:#263238;stroke-linecap:round;stroke-linejoin:round"></path><path d="M177,293.25c2-.87,5-5,15.56-13.83S220,261.05,220,261.05l-3.21-2.86c-7.74,4.19-24.88,14.72-47,31.82l-3.43,3.67S175,294.11,177,293.25Z" style="fill:#263238;stroke:#263238;stroke-linecap:round;stroke-linejoin:round"></path><path d="M169.72,290c-.7.05-5.7.47-12.73,1.26,0,1.87,9.4,2.4,9.4,2.4Z" style="fill:none;stroke:#263238;stroke-linecap:round;stroke-linejoin:round"></path><path d="M426.39,317.16s-1.81-6.53-9.43-12.33-14.68-4-15.4-.54,4.53,9.42,10.51,12.5S423,318.43,426.39,317.16Z" style="fill:#263238;stroke:#263238;stroke-linecap:round;stroke-linejoin:round"></path><path d="M408.75,327.09s7.56,7.56,9,18.42c0,0-.47,2.36,2.84,2.36A43.65,43.65,0,0,0,436.14,345" style="fill:none;stroke:#263238;stroke-linecap:round;stroke-linejoin:round"></path><path d="M438.37,324.17s-.34,1-7.42,4.34a36,36,0,0,1-13.7,3.31" style="fill:#92E3A9"></path><path d="M67.85,334.24s3.23-3.84,14.09,1.35a57.57,57.57,0,0,0,13,4.55" style="fill:none;stroke:#263238;stroke-linecap:round;stroke-linejoin:round"></path><path d="M70.14,360.15A105.57,105.57,0,0,0,90.92,362s-1.89-19.84,13.69-35" style="fill:none;stroke:#263238;stroke-linecap:round;stroke-linejoin:round"></path></g><g id="freepik--Clouds--inject-8"><path d="M365.94,131.17c-6.35-3.47-9.24-.58-11.54-3.47s6.34-10.39-11-17.89c0,0-1.16-16.16-24.82-16.74s-17.32,16.16-23.67,20.2S286.86,111,280.51,115s-3.46,12.12-8.66,13.27-12.12-5.19-18.47-1.15-6.35,7.5-9.24,7.5-8.65-2.31-12.12,0-7.5,5.2-7.5,5.2h146S372.29,134.63,365.94,131.17Z" style="fill:#92E3A9"></path><path d="M365.94,131.17c-6.35-3.47-9.24-.58-11.54-3.47s6.34-10.39-11-17.89c0,0-1.16-16.16-24.82-16.74s-17.32,16.16-23.67,20.2S286.86,111,280.51,115s-3.46,12.12-8.66,13.27-12.12-5.19-18.47-1.15-6.35,7.5-9.24,7.5-8.65-2.31-12.12,0-7.5,5.2-7.5,5.2h146S372.29,134.63,365.94,131.17Z" style="fill:#fff;opacity:0.5"></path><path d="M215.38,199.12c-4.46-2.43-6.49-.4-8.11-2.43s4.46-7.3-7.71-12.57c0,0-.81-11.35-17.43-11.76S170,183.72,165.51,186.55s-5.68-1.62-10.14,1.22-2.43,8.51-6.08,9.33-8.51-3.65-13-.82-4.46,5.27-6.49,5.27-6.08-1.62-8.51,0-5.27,3.65-5.27,3.65H218.62S219.83,201.55,215.38,199.12Z" style="fill:#fff"></path><path d="M215.38,199.12c-4.46-2.43-6.49-.4-8.11-2.43s4.46-7.3-7.71-12.57c0,0-.81-11.35-17.43-11.76S170,183.72,165.51,186.55s-5.68-1.62-10.14,1.22-2.43,8.51-6.08,9.33-8.51-3.65-13-.82-4.46,5.27-6.49,5.27-6.08-1.62-8.51,0-5.27,3.65-5.27,3.65H218.62S219.83,201.55,215.38,199.12Z" style="fill:#fff;opacity:0.5"></path></g><g id="freepik--Character--inject-8"><path d="M283.73,396c0,3.34-10.52,6.06-23.49,6.06s-23.49-2.72-23.49-6.06S247.27,390,260.24,390,283.73,392.67,283.73,396Z" style="fill:#92E3A9;opacity:0.5"></path><path d="M279.48,293.27H261.94l-14.86.69s.1,1.5.26,4l.31.25-2.06-.94s-2.71,41.12-1.73,43.08,11.33,47.43,11.33,47.43-3.17,5.62-4.39,7.57,2.19,2.68,4.14,1.95,5.86-6.83,5.86-8.3-1.43-48.29-1.43-48.29l3.14-31.55h.29s1.71,16.29.07,57.29c-.3,7.6,1.53,18.31,1.75,22.23a15.2,15.2,0,0,1,.33,5.3c-.41,2.29,1.25,6.23,4.15,6.85s3.32-2.49,2.49-5.81-1.61-6.34-1.61-6.34c1.57-8,4.06-30.65,6-41.21C281.85,315.79,279.48,293.27,279.48,293.27Z" style="fill:#263238;stroke:#263238;stroke-linecap:round;stroke-linejoin:round"></path><path d="M282,245.86,267.64,240l-8.13-.21-16.3,6.48,3.89,37.37-1.51,13.59a38.79,38.79,0,0,1,9.55,2.88c5.39,2.34,15.23,4.45,19,2.81a24,24,0,0,0,5.85-3.52l-1-15.05Z" style="fill:#92E3A9;stroke:#263238;stroke-linecap:round;stroke-linejoin:round"></path><path d="M243.21,246.26a7.19,7.19,0,0,0-5.69,3.74c-1.91,3.58-2.87,20.55-2.15,22.46s2.39,3.82,5.73,1.2a19,19,0,0,0,4.83-5.47Z" style="fill:#fff;stroke:#263238;stroke-linecap:round;stroke-linejoin:round"></path><path d="M282,245.86s5-.88,5.91,2.94,5,15.06,3.58,19.6-6.93,4.3-10.75,1.91S282,245.86,282,245.86Z" style="fill:#fff;stroke:#263238;stroke-linecap:round;stroke-linejoin:round"></path><path d="M261.17,246.41l-4.54,4.31s-2.62-7.41-2.62-8.61,3.1-4.78,3.1-4.78l11.71-.23,4.3,5.25-3.58,8.13-5-3.83Z" style="fill:#fff;stroke:#263238;stroke-linecap:round;stroke-linejoin:round"></path><polygon points="269.41 243.09 263.39 251.57 257.49 243.09 257.49 229.04 269.41 229.04 269.41 243.09" style="fill:#fff;stroke:#263238;stroke-linecap:round;stroke-linejoin:round"></polygon><path d="M256.2,225.31s-2.21-.58-2,1,.89,4.42,2,5.09l1.11.66Z" style="fill:#fff;stroke:#263238;stroke-linecap:round;stroke-linejoin:round"></path><path d="M271,225.31s2.21-.58,2,1-.89,4.42-2,5.09l-1.11.66Z" style="fill:#fff;stroke:#263238;stroke-linecap:round;stroke-linejoin:round"></path><path d="M272,222.74a8.4,8.4,0,1,0-16.4,2.57l2.14,10.06,3.9,5.48h3.77l3.79-4.78,2.32-10.52A8.42,8.42,0,0,0,272,222.74Z" style="fill:#fff;stroke:#263238;stroke-linecap:round;stroke-linejoin:round"></path><path d="M270.23,222.08a10.7,10.7,0,0,0-.88,3.32,15.37,15.37,0,0,0,1.1,4s2.66-5.53,2.43-7.52S270,221.42,270.23,222.08Z" style="fill:#263238;stroke:#263238;stroke-linecap:round;stroke-linejoin:round"></path><path d="M256.31,228.93s0-.34.05-.86c.13-1.42.46-4.18,1.27-4.66,1.11-.67,1-4.15,1-4.15s-1.54,1.74,3.77,3.51,9.61,1.08,12.48-2.68.23-6.41-.22-5.08-1.32,3.09-2.87,1.77-4-4-8.4-4a7.57,7.57,0,0,0-6.41,4,4.33,4.33,0,0,0-2.43,3.75C254.54,223.19,256.31,228.93,256.31,228.93Z" style="fill:#263238;stroke:#263238;stroke-linecap:round;stroke-linejoin:round"></path><path d="M271.86,221.94c-3.13.12-5.8-2-8.51-3.84s-4.57,0-4.57,0a4.71,4.71,0,0,1,4.34-3.73c3.69-.24,4.9,4.83,8.33,5.28" style="fill:none;stroke:#fff;stroke-linecap:round;stroke-linejoin:round;stroke-width:0.5px"></path><line x1="255.64" y1="228.75" x2="255.27" y2="225.14" style="fill:#fff;stroke:#263238;stroke-linecap:round;stroke-linejoin:round"></line><line x1="271.24" y1="228.75" x2="272.08" y2="225.32" style="fill:#fff;stroke:#263238;stroke-linecap:round;stroke-linejoin:round"></line><path d="M263.28,227.65h-7l.74,2.3a1.07,1.07,0,0,0,1,.75h3.6a1.08,1.08,0,0,0,1-.82Z" style="fill:#263238"></path><path d="M271,227.65h-7l.74,2.3a1.09,1.09,0,0,0,1,.75h3.59a1.08,1.08,0,0,0,1.05-.82Z" style="fill:#263238"></path><path d="M265.46,228.46h-3.4a.47.47,0,0,1-.48-.48.48.48,0,0,1,.48-.49h3.4a.49.49,0,0,1,.49.49A.48.48,0,0,1,265.46,228.46Z" style="fill:#263238"></path><path d="M265,233s-.56.84-1.21.84-1.22-.84-1.22-.84" style="fill:none;stroke:#263238;stroke-linecap:round;stroke-linejoin:round;stroke-width:0.75px"></path><path d="M262.6,235.76a6.58,6.58,0,0,0,3.58-1.43" style="fill:none;stroke:#263238;stroke-linecap:round;stroke-linejoin:round;stroke-width:0.75px"></path><path d="M291.28,264.58s1.44,5.25-2.15,7.16c-1.35.72-7.64-.47-15.05-2.39S262.61,266,262.61,266l-20.79-.48s-1.91-3.82,1-6,13.39.95,13.39.95l21.5.48a15.91,15.91,0,0,1,10.76-.24" style="fill:#fff;stroke:#263238;stroke-linecap:round;stroke-linejoin:round"></path><path d="M239,266s5-4.06,8.84-5.5,25.09-1.91,25.09-1.91,6,1.91,4.78,2.39-6,1-8.12,1.91-14.58,9.56-29.63,11.71c-3.3.47-4.07.24-4.78-3.1" style="fill:#fff;stroke:#263238;stroke-linecap:round;stroke-linejoin:round"></path><polygon points="269.45 258.86 269.85 262.29 271.26 262.29 271.46 258.65 269.45 258.86" style="fill:#263238;stroke:#263238;stroke-linecap:round;stroke-linejoin:round"></polygon><path d="M253.36,301.55a21.54,21.54,0,0,1,8.15,7.41" style="fill:none;stroke:#fff;stroke-linecap:round;stroke-linejoin:round;stroke-width:0.75px"></path><path d="M248.54,302.29s4.25-.2,9.64,3.33" style="fill:none;stroke:#fff;stroke-linecap:round;stroke-linejoin:round;stroke-width:0.75px"></path></g></svg>